<svg width="120" height="24" viewBox="0 0 120 24" fill="none" xmlns="http://www.w3.org/2000/svg">
<path d="M13.5283 5H17.5283V2H19.5283V5.00684C20.7682 5.02477 21.4708 5.11438 21.9424 5.58594C22.4139 6.0575 22.5036 6.76014 22.5215 8H25.5283V10H22.5283V14H25.5283V16H22.5215C22.5035 17.2396 22.4139 17.9425 21.9424 18.4141C21.4708 18.8855 20.768 18.9733 19.5283 18.9912V22H17.5283V19H13.5283V22H11.5283V18.9912C10.2887 18.9733 9.58577 18.8856 9.11426 18.4141C8.64274 17.9425 8.55408 17.2396 8.53613 16H5.52832V14H8.52832V10H5.52832V8H8.53613C8.55406 6.76028 8.64284 6.0575 9.11426 5.58594C9.58578 5.11442 10.2887 5.02478 11.5283 5.00684V2H13.5283V5Z" fill="#4C57FF" style="fill:#4C57FF;fill:color(display-p3 0.2980 0.3412 1.0000);fill-opacity:1;"/>
<path d="M7.56836 3.50195C6.64457 3.58995 5.96242 3.87554 5.56641 4.35938C5.17041 4.84337 4.97266 5.61398 4.97266 6.62598V7.90137C4.97266 9.17737 4.75296 10.1681 4.33496 10.8281C3.91696 11.5101 3.10206 11.9276 1.91406 12.0596C3.14603 12.2576 3.98289 12.6755 4.37891 13.3135C4.77491 13.9735 4.97266 14.9422 4.97266 16.2402V17.5596C4.97266 18.5275 5.17044 19.2538 5.56641 19.7598C5.96239 20.2657 6.62241 20.5522 7.56836 20.6182V21.96C5.87441 21.872 4.664 21.4979 3.91602 20.8379C3.16817 20.1779 2.81641 18.9893 2.81641 17.2734V15.9756C2.81638 14.8977 2.61858 14.1275 2.2666 13.6875C1.89257 13.2476 1.1439 12.9402 0 12.7422V11.3994C1.01184 11.2454 1.71624 10.9599 2.15625 10.542C2.59625 10.124 2.81641 9.46352 2.81641 8.56152V6.88965C2.81643 5.19574 3.19096 4.00769 3.96094 3.30371C4.73093 2.6219 5.94065 2.24816 7.56836 2.16016V3.50195Z" fill="#4C57FF" style="fill:#4C57FF;fill:color(display-p3 0.2980 0.3412 1.0000);fill-opacity:1;"/>
<path d="M23.4883 2.16016C25.1163 2.24816 26.3267 2.62171 27.0967 3.30371C27.8666 4.00769 28.2402 5.19578 28.2402 6.88965V8.56152C28.2402 9.46352 28.4604 10.124 28.9004 10.542C29.3404 10.96 30.0447 11.2454 31.0566 11.3994V12.7422C29.9126 12.9402 29.164 13.2475 28.79 13.6875C28.4381 14.1275 28.2403 14.8977 28.2402 15.9756V17.2734C28.2402 18.9894 27.8886 20.1779 27.1406 20.8379C26.3926 21.4979 25.1823 21.872 23.4883 21.96V20.6182C24.4342 20.5522 25.0942 20.2657 25.4902 19.7598C25.8862 19.2538 26.085 18.5276 26.085 17.5596V16.2402C26.085 14.9422 26.2827 13.9735 26.6787 13.3135C27.0748 12.6757 27.9108 12.2575 29.1426 12.0596C27.9548 11.9276 27.1407 11.5099 26.7227 10.8281C26.3047 10.1681 26.085 9.17737 26.085 7.90137V6.62598C26.085 5.61398 25.8862 4.84337 25.4902 4.35938C25.0942 3.87561 24.412 3.58993 23.4883 3.50195V2.16016Z" fill="#4C57FF" style="fill:#4C57FF;fill:color(display-p3 0.2980 0.3412 1.0000);fill-opacity:1;"/>
<path d="M45.2486 19H40.5146V5.842H45.1226C49.0106 5.842 51.6926 8.524 51.6926 12.448C51.6926 16.318 49.0646 19 45.2486 19ZM44.9066 7.966H42.8186V16.876H45.0326C47.6606 16.876 49.2626 15.184 49.2626 12.448C49.2626 9.658 47.6246 7.966 44.9066 7.966ZM57.4929 19.234C54.8469 19.234 52.9929 17.308 52.9929 14.554C52.9929 11.764 54.8109 9.838 57.4209 9.838C60.0849 9.838 61.7769 11.62 61.7769 14.392V15.058L55.0809 15.076C55.2429 16.642 56.0709 17.434 57.5289 17.434C58.7349 17.434 59.5269 16.966 59.7789 16.12H61.8129C61.4349 18.064 59.8149 19.234 57.4929 19.234ZM57.4389 11.638C56.1429 11.638 55.3509 12.34 55.1349 13.672H59.5989C59.5989 12.448 58.7529 11.638 57.4389 11.638ZM65.6677 19L62.1397 10.108H64.4797L66.0277 14.194C66.4057 15.256 66.7117 16.174 66.8197 16.66C66.9457 16.102 67.2697 15.166 67.6477 14.194L69.2677 10.108H71.5357L67.8277 19H65.6677ZM73.5881 19H71.1941L75.9461 5.842H78.3041L83.0561 19H80.6261L79.5641 15.958H74.6501L73.5881 19ZM76.8281 9.766L75.3341 14.014H78.8981L77.3861 9.766C77.2781 9.424 77.1521 9.028 77.1161 8.758C77.0621 9.01 76.9541 9.406 76.8281 9.766ZM83.698 16.3H85.786C85.804 17.074 86.38 17.56 87.388 17.56C88.414 17.56 88.972 17.146 88.972 16.498C88.972 16.048 88.738 15.724 87.946 15.544L86.344 15.166C84.742 14.806 83.968 14.05 83.968 12.628C83.968 10.882 85.444 9.838 87.496 9.838C89.494 9.838 90.844 10.99 90.862 12.718H88.774C88.756 11.962 88.252 11.476 87.406 11.476C86.542 11.476 86.038 11.872 86.038 12.538C86.038 13.042 86.434 13.366 87.19 13.546L88.792 13.924C90.286 14.266 91.042 14.95 91.042 16.318C91.042 18.118 89.512 19.234 87.316 19.234C85.102 19.234 83.698 18.046 83.698 16.3ZM92.0301 16.3H94.1181C94.1361 17.074 94.7121 17.56 95.7201 17.56C96.7461 17.56 97.3041 17.146 97.3041 16.498C97.3041 16.048 97.0701 15.724 96.2781 15.544L94.6761 15.166C93.0741 14.806 92.3001 14.05 92.3001 12.628C92.3001 10.882 93.7761 9.838 95.8281 9.838C97.8261 9.838 99.1761 10.99 99.1941 12.718H97.1061C97.0881 11.962 96.5841 11.476 95.7381 11.476C94.8741 11.476 94.3701 11.872 94.3701 12.538C94.3701 13.042 94.7661 13.366 95.5221 13.546L97.1241 13.924C98.6181 14.266 99.3741 14.95 99.3741 16.318C99.3741 18.118 97.8441 19.234 95.6481 19.234C93.4341 19.234 92.0301 18.046 92.0301 16.3ZM102.144 8.326C101.388 8.326 100.794 7.732 100.794 6.994C100.794 6.256 101.388 5.68 102.144 5.68C102.864 5.68 103.458 6.256 103.458 6.994C103.458 7.732 102.864 8.326 102.144 8.326ZM101.046 19V10.108H103.242V19H101.046ZM104.827 16.3H106.915C106.933 17.074 107.509 17.56 108.517 17.56C109.543 17.56 110.101 17.146 110.101 16.498C110.101 16.048 109.867 15.724 109.075 15.544L107.473 15.166C105.871 14.806 105.097 14.05 105.097 12.628C105.097 10.882 106.573 9.838 108.625 9.838C110.623 9.838 111.973 10.99 111.991 12.718H109.903C109.885 11.962 109.381 11.476 108.535 11.476C107.671 11.476 107.167 11.872 107.167 12.538C107.167 13.042 107.563 13.366 108.319 13.546L109.921 13.924C111.415 14.266 112.171 14.95 112.171 16.318C112.171 18.118 110.641 19.234 108.445 19.234C106.231 19.234 104.827 18.046 104.827 16.3ZM116.867 19H114.671V11.944H112.961V10.108H114.671V7.336H116.867V10.108H118.595V11.944H116.867V19Z" fill="#4C57FF" style="fill:#4C57FF;fill:color(display-p3 0.2980 0.3412 1.0000);fill-opacity:1;"/>
</svg>
