<svg width="32" height="20" viewBox="0 0 32 20" fill="none" xmlns="http://www.w3.org/2000/svg">
<path d="M13.5283 3H17.5283V0H19.5283V3.00684C20.7682 3.02477 21.4708 3.11438 21.9424 3.58594C22.4139 4.0575 22.5036 4.76014 22.5215 6H25.5283V8H22.5283V12H25.5283V14H22.5215C22.5035 15.2396 22.4139 15.9425 21.9424 16.4141C21.4708 16.8855 20.768 16.9733 19.5283 16.9912V20H17.5283V17H13.5283V20H11.5283V16.9912C10.2887 16.9733 9.58577 16.8856 9.11426 16.4141C8.64274 15.9425 8.55408 15.2396 8.53613 14H5.52832V12H8.52832V8H5.52832V6H8.53613C8.55406 4.76028 8.64284 4.0575 9.11426 3.58594C9.58578 3.11442 10.2887 3.02478 11.5283 3.00684V0H13.5283V3Z" fill="white" style="fill:white;fill-opacity:1;"/>
<path d="M7.56836 1.50195C6.64457 1.58995 5.96242 1.87554 5.56641 2.35938C5.17041 2.84337 4.97266 3.61398 4.97266 4.62598V5.90137C4.97266 7.17737 4.75296 8.16813 4.33496 8.82812C3.91696 9.51012 3.10206 9.92757 1.91406 10.0596C3.14603 10.2576 3.98289 10.6755 4.37891 11.3135C4.77491 11.9735 4.97266 12.9422 4.97266 14.2402V15.5596C4.97266 16.5275 5.17044 17.2538 5.56641 17.7598C5.96239 18.2657 6.62241 18.5522 7.56836 18.6182V19.96C5.87441 19.872 4.664 19.4979 3.91602 18.8379C3.16817 18.1779 2.81641 16.9893 2.81641 15.2734V13.9756C2.81638 12.8977 2.61858 12.1275 2.2666 11.6875C1.89257 11.2476 1.1439 10.9402 0 10.7422V9.39941C1.01184 9.24544 1.71624 8.95989 2.15625 8.54199C2.59625 8.12399 2.81641 7.46352 2.81641 6.56152V4.88965C2.81643 3.19574 3.19096 2.00769 3.96094 1.30371C4.73093 0.621905 5.94065 0.248158 7.56836 0.160156V1.50195Z" fill="white" style="fill:white;fill-opacity:1;"/>
<path d="M23.4883 0.160156C25.1163 0.248156 26.3267 0.621711 27.0967 1.30371C27.8666 2.00769 28.2402 3.19578 28.2402 4.88965V6.56152C28.2402 7.46352 28.4604 8.12399 28.9004 8.54199C29.3404 8.95997 30.0447 9.24542 31.0566 9.39941V10.7422C29.9126 10.9402 29.164 11.2475 28.79 11.6875C28.4381 12.1275 28.2403 12.8977 28.2402 13.9756V15.2734C28.2402 16.9894 27.8886 18.1779 27.1406 18.8379C26.3926 19.4979 25.1823 19.872 23.4883 19.96V18.6182C24.4342 18.5522 25.0942 18.2657 25.4902 17.7598C25.8862 17.2538 26.085 16.5276 26.085 15.5596V14.2402C26.085 12.9422 26.2827 11.9735 26.6787 11.3135C27.0748 10.6757 27.9108 10.2575 29.1426 10.0596C27.9548 9.92759 27.1407 9.50994 26.7227 8.82812C26.3047 8.16813 26.085 7.17737 26.085 5.90137V4.62598C26.085 3.61398 25.8862 2.84337 25.4902 2.35938C25.0942 1.87561 24.412 1.58993 23.4883 1.50195V0.160156Z" fill="white" style="fill:white;fill-opacity:1;"/>
</svg>
